<svg width="116" height="32" viewBox="0 0 116 32" fill="none" xmlns="http://www.w3.org/2000/svg">
<path fill-rule="evenodd" clip-rule="evenodd" d="M13.9917 17.2571C13.2102 19.1475 11.766 22.6967 11.766 22.6967H7.95703L8.805 9.29681H12.1181L11.5129 16.882L14.4309 9.29681H17.4026L16.6284 17.1348L19.7555 9.29681L23.0759 9.29517L17.5131 22.6964H13.6063C13.6063 22.6964 13.8564 19.1685 13.9917 17.2571Z" fill="white"/>
<path fill-rule="evenodd" clip-rule="evenodd" d="M39.6433 9.29688H42.7319L39.5841 22.6965H36.378L35.2194 16.7807L33.8067 22.6965H30.6562L33.8107 9.29688L37.0933 9.29688L38.2446 15.0926L39.6433 9.29688Z" fill="white"/>
<path fill-rule="evenodd" clip-rule="evenodd" d="M92.265 9.31226H95.5022L95.8345 13.9071L98.4369 9.31226H101.688C101.688 9.31226 97.8207 15.6762 96.9103 17.2009C96.7182 17.5228 96.5887 17.8819 96.5022 18.2278C96.1899 19.4398 95.3563 22.723 95.3563 22.723H92.1621L93.0822 18.6697C93.2512 18.0351 93.2729 17.4442 93.1944 16.8576C92.8848 14.5352 92.265 9.31226 92.265 9.31226Z" fill="white"/>
<path fill-rule="evenodd" clip-rule="evenodd" d="M51.5078 22.6955L54.6729 9.30082C54.6729 9.30082 56.7362 9.29688 57.7969 9.29688C61.3485 9.29688 62.0184 11.3651 61.4971 13.5764C61.1107 15.2074 60.7864 16.7755 60.3883 18.4028C59.9371 20.2412 59.0878 22.6958 55.6708 22.6958C54.5013 22.6955 51.5078 22.6955 51.5078 22.6955ZM57.1033 12.226C56.4734 14.8309 55.8789 17.269 55.2671 19.8098C56.4958 19.8098 56.8822 19.7966 57.298 18.1378C57.7148 16.4786 58.0695 14.9637 58.3781 13.5389C58.5043 12.951 58.6032 12.226 57.66 12.226C57.3681 12.226 57.488 12.226 57.1033 12.226Z" fill="white"/>
<path fill-rule="evenodd" clip-rule="evenodd" d="M80.9316 22.7153L84.0961 9.32289C84.0961 9.32289 86.1577 9.31763 87.2201 9.31763C90.7736 9.31763 91.4412 11.3862 90.9222 13.5972C90.5358 15.2281 90.2102 16.7966 89.8114 18.4235C89.3602 20.2623 88.5103 22.7153 85.0943 22.7153C83.9231 22.7153 80.9316 22.7153 80.9316 22.7153ZM86.5254 12.2471C85.8972 14.8519 85.3011 17.2904 84.6879 19.8312C85.9189 19.8312 86.3053 19.8177 86.7201 18.1588C87.1363 16.5 87.4916 14.9848 87.8012 13.5587C87.9281 12.9721 88.0253 12.2471 87.0838 12.2471C86.7903 12.2471 86.9105 12.2471 86.5254 12.2471Z" fill="white"/>
<path d="M28.1819 9.10596C24.4912 9.10596 23.223 12.0127 22.8022 13.7781C22.5658 14.7678 22.0985 16.7325 21.651 18.6735C21.0883 21.1189 22.184 22.8863 24.5539 22.8863C27.709 22.8863 29.3709 20.7421 29.7757 19.054C30.2546 17.0492 30.7051 15.1161 31.1834 13.109C31.6543 11.1308 30.6814 9.10596 28.1819 9.10596ZM27.8523 13.6505C27.5056 15.0858 27.2051 16.3791 26.814 18.0577C26.4506 19.6139 25.986 19.9161 25.461 19.9161C24.6892 19.9161 24.8311 19.0582 25.1164 17.8886C25.5034 16.308 25.946 14.4565 26.1534 13.5664C26.3621 12.6762 26.6724 12.1136 27.37 12.1136C28.1365 12.114 28.0493 12.8268 27.8523 13.6505Z" fill="white"/>
<path d="M78.4674 9.12744C74.7789 9.12744 73.5085 12.0342 73.087 13.7996C72.8505 14.7907 72.3843 16.7527 71.9358 18.6953C71.3737 21.1404 72.4708 22.9081 74.841 22.9081C77.9945 22.9081 79.658 20.7636 80.0621 19.0768C80.5404 17.0707 80.9916 15.1392 81.4698 13.1318C81.9401 11.1523 80.9672 9.12744 78.4674 9.12744ZM78.1377 13.6717C77.7917 15.1057 77.4918 16.4002 77.1001 18.0818C76.738 19.6381 76.2705 19.9386 75.7461 19.9386C74.9733 19.9386 75.1166 19.0794 75.4031 17.9098C75.7882 16.3292 76.23 14.4766 76.4408 13.5875C76.6489 12.6961 76.9598 12.1335 77.6568 12.1335C78.4243 12.1338 78.3378 12.8496 78.1377 13.6717Z" fill="white"/>
<path d="M68.5223 9.12744C64.8335 9.12744 63.5661 12.0342 63.1432 13.7996C62.9055 14.7907 62.4419 16.7527 61.9934 18.6953C61.4286 21.1404 62.5284 22.9081 64.897 22.9081C68.0521 22.9081 69.7139 20.7636 70.1167 19.0768C70.595 17.0707 71.0475 15.1392 71.5244 13.1318C71.9963 11.1523 71.0221 9.12744 68.5223 9.12744ZM68.1953 13.6717C67.8467 15.1057 67.5467 16.4002 67.1563 18.0818C66.793 19.6381 66.3281 19.9386 65.801 19.9386C65.0309 19.9386 65.1712 19.0794 65.458 17.9098C65.8445 16.3292 66.2876 14.4766 66.4957 13.5875C66.7024 12.6961 67.0147 12.1335 67.7104 12.1335C68.4779 12.1338 68.3914 12.8496 68.1953 13.6717Z" fill="white"/>
<path d="M107.642 8.28275C105.471 7.96084 103.22 9.47076 102.616 11.6554C102.014 13.8424 103.29 15.8764 105.46 16.1957C107.637 16.5216 109.888 15.013 110.49 12.8273C111.093 10.6427 109.821 8.60729 107.642 8.28275ZM106.691 14.7667C106.567 15.2175 106.105 15.5285 105.659 15.4608C105.21 15.3944 104.951 14.9765 105.072 14.5283C105.197 14.0801 105.659 13.77 106.105 13.8365C106.552 13.9006 106.812 14.3225 106.691 14.7667ZM107.802 10.0787L106.812 13.0812H105.749L106.222 10.0787L106.458 9.10216H108.066L107.802 10.0787Z" fill="white"/>
<path d="M48.7884 9.02441C45.085 9.02441 43.8339 11.8299 43.404 13.5516C43.1392 14.6107 42.7648 16.3093 42.3116 18.2602C41.67 21.0193 42.9204 23.0119 45.3037 23.0119C48.2284 23.0119 50.1504 21.2133 50.6403 19.1513C50.9753 17.744 51.6219 14.9947 51.6219 14.9947L47.3827 14.9947L46.7071 17.8663H47.6509C47.2561 19.3936 46.9389 20.0292 46.2125 20.0292C45.4383 20.0292 45.6253 18.9836 45.9112 17.813C46.2976 16.2225 46.9158 13.4795 46.9158 13.4795C47.0394 12.9288 47.4375 12.0212 48.1365 12.0212C48.9073 12.0212 48.75 12.9686 48.6218 13.5631C48.6081 13.6242 48.5637 13.8077 48.5503 13.8676L51.862 13.8676C51.862 13.8676 51.9859 13.3036 52.0481 13.0136C52.4699 11.0161 51.2969 9.02441 48.7884 9.02441Z" fill="white"/>
</svg>
